# xmcd
# Track frame offsets:
# 150
# 18301
# 35177
# 45768
# 57589
# 70790
# 84516
# 101617
# 116813
# 128514
# 142060
# 154676
# 174417
# 190395
# 204106
# 218042
# 233658
# 250518
# 261049
# 275525
#
# Disc length: 3873 seconds
# Revision: 0
# Processed by: cddbd v1.5.2PL0 Copyright (c) Steve Scherf et al.
# Submitted via: VisiTrax 2.11.1.266 - For more info visit www.synapsa.com
#
DISCID=120f1f14
DTITLE=Various Artist - 100 Country Hits [CD3)
DYEAR=2010
DGENRE=Country
TTITLE0=Billy Swan - I can help
TTITLE1=Alabama - Take me down
TTITLE2=Jim Ed Brown and The Browns - Pop a top
TTITLE3=Skeeter Davis - The end of the world
TTITLE4=Dolly Parton - I will always love you
TTITLE5=Merle Haggard - That's the way love goes
TTITLE6=Doug Supernaw - I don't call him daddy
TTITLE7=Brooks and Dunn - Ain't nothing 'bout you
TTITLE8=Moe Bandy and Joe Stanpley - Roll on big mama
TTITLE9=The Davis Sisters - I forgot more than you'll ever know
TTITLE10=Bill Monroe - Kentucky waltz
TTITLE11=Marty Robbins - El Paso
TTITLE12=Poul Krebs - Morrison, Dylan og Elvis
TTITLE13=Lefty Frizzell - Saginaw, Michigan
TTITLE14=Mac Davis - Baby Don't get hooked on me
TTITLE15=B. J. Thomas - Whatever happened to old fashioned
TTITLE16=Ricky Skaggs - Cajun Moon
TTITLE17=Jerry Reed - When you're hot, you're hot
TTITLE18=Mindy McCready - Guys do it all the time
TTITLE19=Joe Diffie - Home
EXTD=Sony Music\n88697736142
EXTT0=
EXTT1=
EXTT2=
EXTT3=
EXTT4=
EXTT5=
EXTT6=
EXTT7=
EXTT8=
EXTT9=
EXTT10=
EXTT11=
EXTT12=
EXTT13=
EXTT14=
EXTT15=
EXTT16=
EXTT17=
EXTT18=
EXTT19=
PLAYORDER=
